# xmcd
#
# Track frame offsets:
#	150
#	13718
#	25558
#	36231
#	48641
#	60394
#	73315
#	83780
#	96532
#	109347
#
# Disc length: 1639 seconds
#
# Revision: 0
# Processed by: cddbd v1.5.1PL0 Copyright (c) Steve Scherf et al.
# Submitted via: audiograbber 1.83.01
#
DISCID=8606650a
DTITLE=Reeves, Jim and Cline, Patsy - Greatest Hits - Reeves, Jim and Cline, Patsy 
DTITLE=Greatest Hits
DYEAR=1900
DGENRE=Country
TTITLE0=Have You Ever Been Lonely (Jim&Patsy)
TTITLE1=Welcome To My World (jim)
TTITLE2=He'll Have To Go (Jim)
TTITLE3=Crazy (Patsy)
TTITLE4=Sweet Dreams (Of You) (Patsy)
TTITLE5=Four Walls (Jim)
TTITLE6=Am I Losing You (Jim)
TTITLE7=Golden Memories And Silver Tears (Jim)
TTITLE8=I Fall To Pieces (Patsy)
TTITLE9=She's Got You (Patsy)
EXTD=
EXTT0=
EXTT1=
EXTT2=
EXTT3=
EXTT4=
EXTT5=
EXTT6=
EXTT7=
EXTT8=
EXTT9=
PLAYORDER=
